<?xml version="1.0" encoding="UTF-8" standalone="no"?>
<!-- Created with Inkscape (http://www.inkscape.org/) -->

<svg
   width="59.570606mm"
   height="59.715019mm"
   viewBox="0 0 59.570606 59.715019"
   version="1.1"
   id="svg5"
   inkscape:version="1.1 (c68e22c387, 2021-05-23)"
   sodipodi:docname="slack-favicon.svg"
   xmlns:inkscape="http://www.inkscape.org/namespaces/inkscape"
   xmlns:sodipodi="http://sodipodi.sourceforge.net/DTD/sodipodi-0.dtd"
   xmlns="http://www.w3.org/2000/svg"
   xmlns:svg="http://www.w3.org/2000/svg">
  <sodipodi:namedview
     id="namedview7"
     pagecolor="#ffffff"
     bordercolor="#666666"
     borderopacity="1.0"
     inkscape:pageshadow="2"
     inkscape:pageopacity="0.0"
     inkscape:pagecheckerboard="0"
     inkscape:document-units="mm"
     showgrid="false"
     showguides="true"
     inkscape:guide-bbox="true"
     inkscape:zoom="0.72337262"
     inkscape:cx="40.781195"
     inkscape:cy="-47.693262"
     inkscape:window-width="1920"
     inkscape:window-height="1001"
     inkscape:window-x="2391"
     inkscape:window-y="-9"
     inkscape:window-maximized="1"
     inkscape:current-layer="layer1"
     fit-margin-top="0"
     fit-margin-left="0"
     fit-margin-right="0"
     fit-margin-bottom="0" />
  <defs
     id="defs2" />
  <g
     inkscape:label="Layer 1"
     inkscape:groupmode="layer"
     id="layer1"
     transform="translate(-52.177424,-121.16794)">
    <path
       id="rect958"
       style="fill:#36c5f0;fill-opacity:1;stroke:#000000;stroke-width:0;stroke-linecap:square;stroke-linejoin:bevel"
       d="m 219.45117,518.26172 a 22.238437,22.604415 0 0 0 -22.23828,22.60547 22.238437,22.604415 0 0 0 22.23828,22.60351 22.238437,22.604415 0 0 0 0.24414,-0.01 v 0.0762 h 58.51953 a 22.238437,22.604415 0 0 0 2.07032,0.10937 22.238437,22.604415 0 0 0 22.23828,-22.60351 22.238437,22.604415 0 0 0 -22.23828,-22.60547 22.238437,22.604415 0 0 0 -0.22657,0.008 v -0.041 h -58.12695 a 22.238437,22.604415 0 0 0 -2.48047,-0.14258 z"
       transform="scale(0.26458333)" />
    <path
       id="rect958-4"
       style="fill:#2eb67d;fill-opacity:1;stroke:#000000;stroke-width:0;stroke-linecap:square;stroke-linejoin:bevel"
       d="m 83.928545,143.15421 a 5.9807514,5.8839197 0 0 0 5.98103,5.88388 5.9807514,5.8839197 0 0 0 5.98051,-5.88388 5.9807514,5.8839197 0 0 0 -0.003,-0.0646 h 0.0202 v -15.48329 a 5.9807514,5.8839197 0 0 0 0.0289,-0.54777 5.9807514,5.8839197 0 0 0 -5.98051,-5.88388 5.9807514,5.8839197 0 0 0 -5.98103,5.88388 5.9807514,5.8839197 0 0 0 0.002,0.06 h -0.0109 v 15.37942 a 5.9807514,5.8839197 0 0 0 -0.0377,0.65629 z" />
    <path
       id="rect958-4-7"
       style="fill:#ecb22e;fill-opacity:1;stroke:#000000;stroke-width:0;stroke-linecap:square;stroke-linejoin:bevel"
       d="m 89.768493,152.99139 a 5.8839197,5.9807514 0 0 0 -5.88388,5.98103 5.8839197,5.9807514 0 0 0 5.88388,5.98051 5.8839197,5.9807514 0 0 0 0.0646,-0.003 v 0.0202 h 15.483287 a 5.8839197,5.9807514 0 0 0 0.54777,0.0289 5.8839197,5.9807514 0 0 0 5.88388,-5.98051 5.8839197,5.9807514 0 0 0 -5.88388,-5.98103 5.8839197,5.9807514 0 0 0 -0.06,0.002 v -0.0109 H 90.424733 a 5.8839197,5.9807514 0 0 0 -0.65629,-0.0377 z" />
    <path
       id="rect958-4-7-5"
       style="fill:#e01e5a;fill-opacity:1;stroke:#000000;stroke-width:0;stroke-linecap:square;stroke-linejoin:bevel"
       d="m 80.064109,158.83568 a 5.9807514,5.8839197 0 0 0 -5.98103,-5.88388 5.9807514,5.8839197 0 0 0 -5.98051,5.88388 5.9807514,5.8839197 0 0 0 0.003,0.0646 h -0.0202 v 15.48329 a 5.9807514,5.8839197 0 0 0 -0.0289,0.54777 5.9807514,5.8839197 0 0 0 5.98051,5.88388 5.9807514,5.8839197 0 0 0 5.98103,-5.88388 5.9807514,5.8839197 0 0 0 -0.002,-0.06 h 0.0109 v -15.37942 a 5.9807514,5.8839197 0 0 0 0.0377,-0.65629 z" />
    <path
       id="path982-18"
       style="fill:#36c5f0;fill-opacity:1;stroke:#000000;stroke-width:0;stroke-linecap:square;stroke-linejoin:bevel"
       d="m 74.03664,121.16801 a 5.9468143,5.9807514 0 0 0 -5.946407,5.98052 5.9468143,5.9807514 0 0 0 5.946407,5.98102 v 0.002 h 5.948474 v -6.01307 h -0.0026 a 5.9468143,5.9807514 0 0 0 -5.945889,-5.95054 z" />
    <path
       id="path982-18-1"
       style="fill:#2eb67d;fill-opacity:1;stroke:#000000;stroke-width:0;stroke-linecap:square;stroke-linejoin:bevel"
       d="m 111.55023,143.15396 a 5.9807514,5.9468143 0 0 0 -5.98052,-5.94641 5.9807514,5.9468143 0 0 0 -5.981018,5.94641 h -0.002 v 5.94847 h 6.013068 v -0.003 a 5.9807514,5.9468143 0 0 0 5.95054,-5.94589 z" />
    <path
       id="path982-18-1-0"
       style="fill:#ecb22e;fill-opacity:1;stroke:#000000;stroke-width:0;stroke-linecap:square;stroke-linejoin:bevel"
       d="m 89.81165,180.88289 a 5.9468143,5.9807514 0 0 0 5.94641,-5.98052 5.9468143,5.9807514 0 0 0 -5.94641,-5.98101 v -0.002 h -5.948474 v 6.01306 h 0.003 a 5.9468143,5.9807514 0 0 0 5.945894,5.95054 z" />
    <path
       id="path982-18-1-0-8"
       style="fill:#e01e5a;fill-opacity:1;stroke:#000000;stroke-width:0;stroke-linecap:square;stroke-linejoin:bevel"
       d="m 52.177494,158.99622 a 5.9807514,5.9468143 0 0 0 5.98052,5.94641 5.9807514,5.9468143 0 0 0 5.98101,-5.94641 h 0.002 v -5.94847 h -6.01306 v 0.003 a 5.9807514,5.9468143 0 0 0 -5.95054,5.94589 z" />
  </g>
</svg>
